<svg xmlns="http://www.w3.org/2000/svg" xmlns:xlink="http://www.w3.org/1999/xlink" width="512" zoomAndPan="magnify" viewBox="0 0 384 383.999986" height="512" preserveAspectRatio="xMidYMid meet" version="1.0"><defs><g/><clipPath id="48dc6d2002"><rect x="0" width="206" y="0" height="384"/></clipPath><clipPath id="f5e51cd022"><path d="M 7.957031 50.863281 L 252.457031 50.863281 L 252.457031 332.113281 L 7.957031 332.113281 Z M 7.957031 50.863281 " clip-rule="nonzero"/></clipPath><clipPath id="ecfc52c5df"><rect x="0" width="119" y="0" height="384"/></clipPath><clipPath id="05f4742db3"><rect x="0" width="59" y="0" height="155"/></clipPath></defs><g transform="matrix(1, 0, 0, 1, 167, 0)"><g clip-path="url(#48dc6d2002)"><g fill="#000000" fill-opacity="1"><g transform="translate(0.280243, 301.986264)"><g><path d="M 119.046875 -116.078125 C 137.566406 -113.867188 152.28125 -107.691406 163.1875 -97.546875 C 174.101562 -87.410156 179.5625 -74.847656 179.5625 -59.859375 C 179.5625 -48.390625 176.253906 -38.023438 169.640625 -28.765625 C 163.023438 -19.503906 153.875 -12.171875 142.1875 -6.765625 C 130.507812 -1.367188 117.503906 1.328125 103.171875 1.328125 C 97.003906 1.328125 89.953125 0.992188 82.015625 0.328125 C 78.921875 0.109375 75.113281 -0.109375 70.59375 -0.328125 C 66.082031 -0.546875 61.070312 -0.65625 55.5625 -0.65625 L 31.421875 -0.328125 C 27.003906 -0.109375 21.050781 0 13.5625 0 C 12.894531 0 12.5625 -0.660156 12.5625 -1.984375 C 12.5625 -3.304688 12.894531 -3.96875 13.5625 -3.96875 C 19.945312 -3.96875 24.789062 -4.570312 28.09375 -5.78125 C 31.40625 -7 33.78125 -9.207031 35.21875 -12.40625 C 36.65625 -15.601562 37.375 -20.394531 37.375 -26.78125 L 37.375 -179.890625 C 37.375 -189.148438 35.828125 -195.269531 32.734375 -198.25 C 29.648438 -201.226562 23.367188 -202.71875 13.890625 -202.71875 C 13.453125 -202.71875 13.234375 -203.378906 13.234375 -204.703125 C 13.234375 -206.023438 13.453125 -206.6875 13.890625 -206.6875 L 31.421875 -206.34375 C 41.554688 -205.90625 49.601562 -205.6875 55.5625 -205.6875 C 61.726562 -205.6875 68.117188 -206.019531 74.734375 -206.6875 C 76.941406 -206.90625 80.25 -207.125 84.65625 -207.34375 C 89.0625 -207.5625 92.921875 -207.671875 96.234375 -207.671875 C 116.296875 -207.671875 131.835938 -204.03125 142.859375 -196.75 C 153.878906 -189.476562 159.390625 -178.898438 159.390625 -165.015625 C 159.390625 -154.429688 155.914062 -144.835938 148.96875 -136.234375 C 142.03125 -127.640625 132.054688 -120.921875 119.046875 -116.078125 Z M 91.265625 -200.390625 C 84.878906 -200.390625 80.472656 -198.898438 78.046875 -195.921875 C 75.617188 -192.953125 74.40625 -187.390625 74.40625 -179.234375 L 74.40625 -116.40625 L 87.625 -116.078125 C 99.09375 -116.078125 107.910156 -120.375 114.078125 -128.96875 C 120.253906 -137.5625 123.34375 -148.582031 123.34375 -162.03125 C 123.34375 -174.601562 120.585938 -184.140625 115.078125 -190.640625 C 109.566406 -197.140625 101.628906 -200.390625 91.265625 -200.390625 Z M 97.546875 -6.9375 C 126.429688 -6.9375 140.875 -21.929688 140.875 -51.921875 C 140.875 -68.890625 136.796875 -82.332031 128.640625 -92.25 C 120.484375 -102.175781 108.132812 -107.140625 91.59375 -107.140625 C 85.207031 -107.140625 79.476562 -106.921875 74.40625 -106.484375 L 74.40625 -26.78125 C 74.40625 -19.507812 75.835938 -14.382812 78.703125 -11.40625 C 81.566406 -8.425781 87.847656 -6.9375 97.546875 -6.9375 Z M 97.546875 -6.9375 "/></g></g></g></g></g><g clip-path="url(#f5e51cd022)"><path fill="#f4b6cf" d="M 156.707031 115.246094 C 156.523438 115.613281 169.355469 118.757812 179.386719 131.996094 C 185.226562 139.703125 186.160156 148.15625 182.191406 157.367188 C 180.214844 161.957031 173.242188 171.457031 170.292969 175.519531 C 156.871094 193.984375 187.914062 198.777344 210.117188 209.101562 C 215.578125 211.636719 220.667969 215.097656 225.390625 219.46875 C 228.9375 222.753906 231.511719 226.617188 233.105469 231.0625 C 240.449219 251.542969 210.691406 267.082031 221.371094 292.707031 C 225.175781 301.835938 234.671875 309.328125 243.746094 313.484375 C 248.773438 315.789062 253.394531 315.566406 252.664062 317.449219 C 252.34375 318.265625 251.785156 318.824219 250.984375 319.132812 C 247.101562 320.636719 237.667969 320.8125 233.410156 320.6875 C 232.898438 320.671875 232.578125 321.230469 232.839844 321.667969 C 236.953125 328.417969 240.832031 329.390625 238.9375 331.113281 C 233.628906 335.945312 189.269531 323.023438 189.203125 286.492188 C 189.167969 269.617188 203.835938 256.902344 207.261719 243.414062 C 209.226562 235.6875 205.679688 227.207031 199.796875 221.875 C 187.898438 211.09375 172.09375 211.652344 158.75 199.816406 C 152.394531 194.179688 148.972656 185.671875 151.398438 177.425781 C 153.285156 171.027344 156.449219 166.511719 160.78125 159.023438 C 167.863281 146.773438 165.378906 135.222656 154.691406 126.15625 C 149.816406 122.019531 144.515625 118.976562 138.757812 117.09375 C 138.53125 117.019531 138.289062 117.125 138.183594 117.328125 C 134.632812 124.320312 125.484375 122.75 120.621094 118.285156 C 120.085938 117.792969 119.234375 117.902344 118.832031 118.503906 C 100.785156 145.675781 93.460938 135.277344 71.8125 175.324219 C 59.960938 197.253906 79.851562 214.226562 88.277344 233.417969 C 94.398438 247.371094 93.171875 260.515625 86.628906 274.304688 C 79.34375 289.648438 66.417969 303.453125 50.859375 310.671875 C 50.046875 311.046875 49.304688 311.042969 48.632812 310.679688 C 46.289062 309.402344 55.742188 302.640625 54.054688 291.117188 C 54.011719 290.828125 53.757812 290.617188 53.464844 290.628906 C 46.242188 290.972656 37.261719 290.207031 30.910156 286.824219 C 30.414062 286.554688 30.355469 285.863281 30.800781 285.511719 C 34.105469 282.902344 48.824219 283.273438 62.242188 270.199219 C 77.148438 255.664062 59 241.546875 50.429688 216.882812 C 44.785156 200.625 45.625 181.371094 54.171875 166.394531 C 61.742188 153.132812 78.222656 137.667969 90.582031 130.21875 C 97.21875 126.21875 103.992188 121.972656 110.945312 117.5625 C 111.261719 117.363281 111.066406 116.871094 110.695312 116.9375 C 74.496094 123.578125 70.5 124.789062 60.761719 125.941406 C 44.648438 127.851562 21.960938 125.089844 11.90625 110.75 C 8.566406 105.988281 7.667969 100.179688 8.035156 93.914062 C 10.03125 59.703125 23.152344 47.042969 64.464844 64.992188 C 79.871094 71.6875 114.804688 95.445312 123.191406 103.730469 C 123.933594 104.464844 125.882812 102.472656 131.710938 103.546875 C 136.199219 104.375 136.25 104.503906 136.648438 104.121094 C 146.207031 94.902344 140.671875 100.597656 175.871094 74.328125 C 192.042969 62.261719 229.242188 40.785156 241.894531 56.289062 C 245.832031 61.113281 244.539062 65.652344 243.980469 73.5625 C 243.558594 79.519531 244.78125 86.433594 245.128906 92.03125 C 245.824219 103.253906 240.890625 115.136719 230.550781 120.253906 C 207.433594 131.6875 156.917969 113.109375 156.707031 115.246094 Z M 157.121094 102.882812 C 157.277344 103.546875 158.375 102.511719 167.632812 102.882812 C 171.660156 103.046875 179.753906 103.679688 191.925781 104.789062 C 203.199219 105.816406 223.871094 104.152344 230.84375 98.089844 C 237.683594 92.144531 238.765625 83.847656 237.332031 75.058594 C 236.980469 72.898438 236.464844 71.488281 235.785156 70.824219 C 229.984375 65.148438 212.109375 72.816406 205.765625 75.890625 C 196.152344 80.546875 205.523438 75.570312 165.417969 98.667969 C 158.789062 102.488281 156.960938 102.214844 157.117188 102.882812 Z M 80.550781 95.300781 C 69.441406 90.199219 44.414062 74.550781 32.472656 77.542969 C 27.148438 78.878906 22.316406 82.144531 18.15625 85.625 C 17.4375 86.230469 17.164062 87.214844 17.488281 88.089844 C 22.398438 101.5 39.972656 106.964844 52.496094 109.65625 C 68.695312 113.148438 84.613281 109.457031 100.410156 105.003906 C 101.296875 104.742188 99.746094 104.117188 80.550781 95.300781 Z M 80.550781 95.300781 " fill-opacity="1" fill-rule="nonzero"/></g><g transform="matrix(1, 0, 0, 1, 73, 0)"><g clip-path="url(#ecfc52c5df)"><g fill="#000000" fill-opacity="1"><g transform="translate(0.75372, 301.986264)"><g><path d="M 75.0625 -26.78125 C 75.0625 -19.945312 75.613281 -14.988281 76.71875 -11.90625 C 77.820312 -8.820312 79.972656 -6.726562 83.171875 -5.625 C 86.367188 -4.519531 91.492188 -3.96875 98.546875 -3.96875 C 99.203125 -3.96875 99.53125 -3.304688 99.53125 -1.984375 C 99.53125 -0.660156 99.203125 0 98.546875 0 C 91.265625 0 85.53125 -0.109375 81.34375 -0.328125 L 56.21875 -0.65625 L 31.75 -0.328125 C 27.332031 -0.109375 21.378906 0 13.890625 0 C 13.453125 0 13.234375 -0.660156 13.234375 -1.984375 C 13.234375 -3.304688 13.453125 -3.96875 13.890625 -3.96875 C 20.941406 -3.96875 26.117188 -4.519531 29.421875 -5.625 C 32.734375 -6.726562 34.992188 -8.875 36.203125 -12.0625 C 37.421875 -15.257812 38.03125 -20.164062 38.03125 -26.78125 L 38.03125 -179.890625 C 38.03125 -186.503906 37.421875 -191.351562 36.203125 -194.4375 C 34.992188 -197.53125 32.734375 -199.679688 29.421875 -200.890625 C 26.117188 -202.109375 20.941406 -202.71875 13.890625 -202.71875 C 13.453125 -202.71875 13.234375 -203.378906 13.234375 -204.703125 C 13.234375 -206.023438 13.453125 -206.6875 13.890625 -206.6875 L 31.75 -206.34375 C 41.882812 -205.90625 50.039062 -205.6875 56.21875 -205.6875 C 63.050781 -205.6875 71.539062 -205.90625 81.6875 -206.34375 L 98.546875 -206.6875 C 99.203125 -206.6875 99.53125 -206.023438 99.53125 -204.703125 C 99.53125 -203.378906 99.203125 -202.71875 98.546875 -202.71875 C 91.710938 -202.71875 86.640625 -202.054688 83.328125 -200.734375 C 80.023438 -199.410156 77.820312 -197.148438 76.71875 -193.953125 C 75.613281 -190.753906 75.0625 -185.847656 75.0625 -179.234375 Z M 75.0625 -26.78125 "/></g></g></g></g></g><g transform="matrix(1, 0, 0, 1, 325, 156)"><g clip-path="url(#05f4742db3)"><g fill="#f4b6cf" fill-opacity="1"><g transform="translate(1.264193, 122.423004)"><g><path d="M 47.328125 -19.0625 L 30.921875 20.1875 L 20.828125 20.1875 L 30.921875 -19.0625 Z M 27.515625 -60.453125 C 27.515625 -63.398438 28.457031 -65.835938 30.34375 -67.765625 C 32.238281 -69.703125 34.742188 -70.671875 37.859375 -70.671875 C 40.972656 -70.671875 43.472656 -69.703125 45.359375 -67.765625 C 47.253906 -65.835938 48.203125 -63.398438 48.203125 -60.453125 C 48.203125 -57.335938 47.234375 -54.851562 45.296875 -53 C 43.367188 -51.15625 40.890625 -50.234375 37.859375 -50.234375 C 34.742188 -50.234375 32.238281 -51.175781 30.34375 -53.0625 C 28.457031 -54.957031 27.515625 -57.421875 27.515625 -60.453125 Z M 27.515625 -60.453125 "/></g></g></g></g></g></svg>